<svg width="16" height="17" viewBox="0 0 16 17" fill="none" xmlns="http://www.w3.org/2000/svg">
<path fill-rule="evenodd" clip-rule="evenodd" d="M7.99996 2.50001C7.44767 2.50001 6.99996 2.94772 6.99996 3.50001C6.99996 4.05229 7.44767 4.50001 7.99996 4.50001C8.55224 4.50001 8.99996 4.05229 8.99996 3.50001C8.99996 2.94772 8.55224 2.50001 7.99996 2.50001ZM5.66663 3.50001C5.66663 2.21134 6.71129 1.16667 7.99996 1.16667C9.28862 1.16667 10.3333 2.21134 10.3333 3.50001C10.3333 4.78867 9.28862 5.83334 7.99996 5.83334C6.71129 5.83334 5.66663 4.78867 5.66663 3.50001Z" fill="#262626"/>
<path fill-rule="evenodd" clip-rule="evenodd" d="M7.2714 4.22865C7.53175 4.489 7.53175 4.91111 7.2714 5.17146L4.6714 7.77146C4.41105 8.03181 3.98894 8.03181 3.72859 7.77146C3.46824 7.51111 3.46824 7.089 3.72859 6.82865L6.32859 4.22865C6.58894 3.9683 7.01105 3.9683 7.2714 4.22865Z" fill="#262626"/>
<path fill-rule="evenodd" clip-rule="evenodd" d="M2.99996 7.50001C2.44767 7.50001 1.99996 7.94772 1.99996 8.50001C1.99996 9.05229 2.44767 9.50001 2.99996 9.50001C3.55224 9.50001 3.99996 9.05229 3.99996 8.50001C3.99996 7.94772 3.55224 7.50001 2.99996 7.50001ZM0.666626 8.50001C0.666626 7.21134 1.7113 6.16667 2.99996 6.16667C4.28862 6.16667 5.33329 7.21134 5.33329 8.50001C5.33329 9.78867 4.28862 10.8333 2.99996 10.8333C1.7113 10.8333 0.666626 9.78867 0.666626 8.50001Z" fill="#262626"/>
<path fill-rule="evenodd" clip-rule="evenodd" d="M4 8.49999C4 8.13181 4.29848 7.83333 4.66667 7.83333H11.3333C11.7015 7.83333 12 8.13181 12 8.49999C12 8.86818 11.7015 9.16666 11.3333 9.16666H4.66667C4.29848 9.16666 4 8.86818 4 8.49999Z" fill="#262626"/>
<path fill-rule="evenodd" clip-rule="evenodd" d="M13 7.50001C12.4477 7.50001 12 7.94772 12 8.50001C12 9.05229 12.4477 9.50001 13 9.50001C13.5522 9.50001 14 9.05229 14 8.50001C14 7.94772 13.5522 7.50001 13 7.50001ZM10.6666 8.50001C10.6666 7.21134 11.7113 6.16667 13 6.16667C14.2886 6.16667 15.3333 7.21134 15.3333 8.50001C15.3333 9.78867 14.2886 10.8333 13 10.8333C11.7113 10.8333 10.6666 9.78867 10.6666 8.50001Z" fill="#262626"/>
<path fill-rule="evenodd" clip-rule="evenodd" d="M12.2714 9.22865C12.5317 9.489 12.5317 9.91111 12.2714 10.1715L9.6714 12.7715C9.41105 13.0318 8.98894 13.0318 8.72859 12.7715C8.46824 12.5111 8.46824 12.089 8.72859 11.8286L11.3286 9.22865C11.5889 8.9683 12.011 8.9683 12.2714 9.22865Z" fill="#262626"/>
<path fill-rule="evenodd" clip-rule="evenodd" d="M7.99996 12.5C7.44767 12.5 6.99996 12.9477 6.99996 13.5C6.99996 14.0523 7.44767 14.5 7.99996 14.5C8.55224 14.5 8.99996 14.0523 8.99996 13.5C8.99996 12.9477 8.55224 12.5 7.99996 12.5ZM5.66663 13.5C5.66663 12.2113 6.71129 11.1667 7.99996 11.1667C9.28862 11.1667 10.3333 12.2113 10.3333 13.5C10.3333 14.7887 9.28862 15.8333 7.99996 15.8333C6.71129 15.8333 5.66663 14.7887 5.66663 13.5Z" fill="#262626"/>
</svg>
