<svg width="16" height="17" viewBox="0 0 16 17" fill="none" xmlns="http://www.w3.org/2000/svg">
<path fill-rule="evenodd" clip-rule="evenodd" d="M2.58579 1.75246C2.96086 1.37739 3.46957 1.16667 4 1.16667H10C10.1768 1.16667 10.3464 1.23691 10.4714 1.36193L13.8047 4.69527C13.9298 4.82029 14 4.98986 14 5.16667V13.8333C14 14.3638 13.7893 14.8725 13.4142 15.2476C13.0391 15.6226 12.5304 15.8333 12 15.8333H4C3.46957 15.8333 2.96086 15.6226 2.58579 15.2476C2.21071 14.8725 2 14.3638 2 13.8333V3.16667C2 2.63624 2.21071 2.12753 2.58579 1.75246ZM4 2.50001C3.82319 2.50001 3.65362 2.57024 3.5286 2.69527C3.40357 2.82029 3.33333 2.98986 3.33333 3.16667V13.8333C3.33333 14.0101 3.40357 14.1797 3.5286 14.3047C3.65362 14.4298 3.82319 14.5 4 14.5H12C12.1768 14.5 12.3464 14.4298 12.4714 14.3047C12.5964 14.1797 12.6667 14.0101 12.6667 13.8333V5.44281L9.72386 2.50001H4Z" fill="#262626"/>
<path fill-rule="evenodd" clip-rule="evenodd" d="M6.66663 10.5C6.29844 10.5 5.99996 10.7985 5.99996 11.1667C5.99996 11.5349 6.29844 11.8333 6.66663 11.8333C7.03482 11.8333 7.33329 11.5349 7.33329 11.1667C7.33329 10.7985 7.03482 10.5 6.66663 10.5ZM4.66663 11.1667C4.66663 10.0621 5.56206 9.16667 6.66663 9.16667C7.7712 9.16667 8.66663 10.0621 8.66663 11.1667C8.66663 12.2712 7.7712 13.1667 6.66663 13.1667C5.56206 13.1667 4.66663 12.2712 4.66663 11.1667Z" fill="#262626"/>
<path fill-rule="evenodd" clip-rule="evenodd" d="M11.1381 6.69526C11.3984 6.95561 11.3984 7.37772 11.1381 7.63807L8.13807 10.6381C7.87772 10.8984 7.45561 10.8984 7.19526 10.6381C6.93491 10.3777 6.93491 9.95561 7.19526 9.69526L10.1953 6.69526C10.4556 6.43491 10.8777 6.43491 11.1381 6.69526Z" fill="#262626"/>
<path fill-rule="evenodd" clip-rule="evenodd" d="M9.52864 7.36193C9.78899 7.10158 10.2111 7.10158 10.4714 7.36193L11.1381 8.0286C11.3985 8.28895 11.3985 8.71106 11.1381 8.97141C10.8778 9.23176 10.4557 9.23176 10.1953 8.97141L9.52864 8.30474C9.26829 8.04439 9.26829 7.62228 9.52864 7.36193Z" fill="#262626"/>
</svg>
