<svg width="30" height="30" viewBox="0 0 30 30" fill="none" xmlns="http://www.w3.org/2000/svg">
<rect width="30" height="30" rx="15" fill="#FEF3C7"/>
<g clip-path="url(#clip0_70_308)">
<path fill-rule="evenodd" clip-rule="evenodd" d="M15 6.74999C10.4437 6.74999 6.75002 10.4436 6.75002 15C6.75002 19.5563 10.4437 23.25 15 23.25C19.5564 23.25 23.25 19.5563 23.25 15C23.25 10.4436 19.5564 6.74999 15 6.74999ZM4.91669 15C4.91669 9.43112 9.43115 4.91666 15 4.91666C20.5689 4.91666 25.0834 9.43112 25.0834 15C25.0834 20.5689 20.5689 25.0833 15 25.0833C9.43115 25.0833 4.91669 20.5689 4.91669 15Z" fill="#D97706"/>
<path fill-rule="evenodd" clip-rule="evenodd" d="M18.3982 11.6018C18.7561 11.9598 18.7561 12.5402 18.3982 12.8982L12.8982 18.3982C12.5402 18.7562 11.9598 18.7562 11.6018 18.3982C11.2438 18.0402 11.2438 17.4598 11.6018 17.1018L17.1018 11.6018C17.4598 11.2438 18.0402 11.2438 18.3982 11.6018Z" fill="#D97706"/>
<path fill-rule="evenodd" clip-rule="evenodd" d="M11.6018 11.6018C11.9598 11.2438 12.5402 11.2438 12.8982 11.6018L18.3982 17.1018C18.7561 17.4598 18.7561 18.0402 18.3982 18.3982C18.0402 18.7562 17.4598 18.7562 17.1018 18.3982L11.6018 12.8982C11.2438 12.5402 11.2438 11.9598 11.6018 11.6018Z" fill="#D97706"/>
</g>
<defs>
<clipPath id="clip0_70_308">
<rect width="22" height="22" fill="white" transform="translate(4 4)"/>
</clipPath>
</defs>
</svg>
