<svg width="30" height="30" viewBox="0 0 30 30" fill="none" xmlns="http://www.w3.org/2000/svg">
<rect width="30" height="30" rx="4" fill="#16A34A"/>
<path fill-rule="evenodd" clip-rule="evenodd" d="M8.58337 7.66668C8.07711 7.66668 7.66671 8.07708 7.66671 8.58334V21.4167C7.66671 21.9229 8.07711 22.3333 8.58337 22.3333H21.4167C21.923 22.3333 22.3334 21.9229 22.3334 21.4167V8.58334C22.3334 8.07708 21.923 7.66668 21.4167 7.66668H8.58337ZM5.83337 8.58334C5.83337 7.06456 7.06459 5.83334 8.58337 5.83334H21.4167C22.9355 5.83334 24.1667 7.06456 24.1667 8.58334V21.4167C24.1667 22.9355 22.9355 24.1667 21.4167 24.1667H8.58337C7.06459 24.1667 5.83337 22.9355 5.83337 21.4167V8.58334Z" fill="#F5F5F5"/>
<path fill-rule="evenodd" clip-rule="evenodd" d="M13.1666 15C13.1666 13.9875 13.9874 13.1667 15 13.1667C16.0125 13.1667 16.8333 13.9875 16.8333 15C16.8333 16.0125 16.0125 16.8333 15 16.8333C13.9874 16.8333 13.1666 16.0125 13.1666 15Z" fill="#F5F5F5"/>
</svg>
