<svg width="9" height="9" viewBox="0 0 9 9" fill="none" xmlns="http://www.w3.org/2000/svg">
<g clip-path="url(#clip0_34_328)">
<path fill-rule="evenodd" clip-rule="evenodd" d="M1.875 1.5C1.66789 1.5 1.5 1.66789 1.5 1.875V7.125C1.5 7.33211 1.66789 7.5 1.875 7.5H7.125C7.33211 7.5 7.5 7.33211 7.5 7.125V1.875C7.5 1.66789 7.33211 1.5 7.125 1.5H1.875ZM0.75 1.875C0.75 1.25368 1.25368 0.75 1.875 0.75H7.125C7.74632 0.75 8.25 1.25368 8.25 1.875V7.125C8.25 7.74632 7.74632 8.25 7.125 8.25H1.875C1.25368 8.25 0.75 7.74632 0.75 7.125V1.875Z" fill="#166534"/>
<path fill-rule="evenodd" clip-rule="evenodd" d="M3.75 4.5C3.75 4.08579 4.08579 3.75 4.5 3.75C4.91421 3.75 5.25 4.08579 5.25 4.5C5.25 4.91421 4.91421 5.25 4.5 5.25C4.08579 5.25 3.75 4.91421 3.75 4.5Z" fill="#166534"/>
</g>
<defs>
<clipPath id="clip0_34_328">
<rect width="9" height="9" fill="white"/>
</clipPath>
</defs>
</svg>
