<svg width="24" height="24" viewBox="0 0 24 24" fill="none" xmlns="http://www.w3.org/2000/svg">
<rect width="24" height="24" rx="12" fill="#3E6957"/>
<g clip-path="url(#clip0_4020_5703)">
<path d="M8.90894 13.0409C9.34001 13.0409 9.76057 12.8972 10.1005 12.6343L7.36688 9.9007C6.708 10.7523 6.86571 11.979 7.71735 12.6378C8.06081 12.8972 8.47786 13.0409 8.90894 13.0409Z" fill="white"/>
<path d="M17.0396 11.0888C17.0396 10.6577 16.8959 10.2372 16.6331 9.89722L13.8994 12.6309C14.751 13.2897 15.9742 13.132 16.6331 12.2804C16.8959 11.9404 17.0396 11.5199 17.0396 11.0888Z" fill="white"/>
<path d="M18.4171 8.11334L17.2079 9.32245C18.1822 10.4895 18.028 12.2278 16.861 13.2021C15.8376 14.0573 14.3516 14.0573 13.3283 13.2021L12 14.5304L10.6752 13.2056C9.50818 14.1799 7.76986 14.0257 6.79556 12.8587C5.94042 11.8353 5.94042 10.3493 6.79556 9.32596L6.17523 8.70563L5.58645 8.11334C4.875 9.2839 4.5 10.6297 4.5 12C4.5 16.1425 7.85748 19.5 12 19.5C16.1425 19.5 19.5 16.1425 19.5 12C19.5035 10.6297 19.125 9.2839 18.4171 8.11334Z" fill="white"/>
<path d="M17.4252 6.82352C14.5689 3.82703 9.8236 3.71488 6.82711 6.57119C6.73949 6.6553 6.65538 6.73941 6.57477 6.82352C6.38903 7.01979 6.21379 7.22306 6.04907 7.43684L12 13.3913L17.9509 7.43684C17.7897 7.22306 17.611 7.01979 17.4252 6.82352ZM12 5.48123C13.7523 5.48123 15.3855 6.15764 16.6122 7.39128L12 12.0034L7.38786 7.39128C8.61449 6.15764 10.2477 5.48123 12 5.48123Z" fill="white"/>
</g>
<defs>
<clipPath id="clip0_4020_5703">
<rect width="15" height="15" fill="white" transform="translate(4.5 4.5)"/>
</clipPath>
</defs>
</svg>
