<svg width="9" height="9" viewBox="0 0 9 9" fill="none" xmlns="http://www.w3.org/2000/svg">
<g clip-path="url(#clip0_34_337)">
<path fill-rule="evenodd" clip-rule="evenodd" d="M4.5 1.125C2.63604 1.125 1.125 2.63604 1.125 4.5C1.125 6.36396 2.63604 7.875 4.5 7.875C6.36396 7.875 7.875 6.36396 7.875 4.5C7.875 2.63604 6.36396 1.125 4.5 1.125ZM0.375 4.5C0.375 2.22183 2.22183 0.375 4.5 0.375C6.77817 0.375 8.625 2.22183 8.625 4.5C8.625 6.77817 6.77817 8.625 4.5 8.625C2.22183 8.625 0.375 6.77817 0.375 4.5Z" fill="#16A34A"/>
<path fill-rule="evenodd" clip-rule="evenodd" d="M3.75 4.5C3.75 4.08579 4.08579 3.75 4.5 3.75C4.91421 3.75 5.25 4.08579 5.25 4.5C5.25 4.91421 4.91421 5.25 4.5 5.25C4.08579 5.25 3.75 4.91421 3.75 4.5Z" fill="#16A34A"/>
</g>
<defs>
<clipPath id="clip0_34_337">
<rect width="9" height="9" fill="white"/>
</clipPath>
</defs>
</svg>
