<svg width="30" height="30" viewBox="0 0 30 30" fill="none" xmlns="http://www.w3.org/2000/svg">
<rect width="30" height="30" rx="15" fill="#166534"/>
<g clip-path="url(#clip0_34_155)">
<path fill-rule="evenodd" clip-rule="evenodd" d="M15 6.74999C10.4436 6.74999 6.74996 10.4436 6.74996 15C6.74996 19.5563 10.4436 23.25 15 23.25C19.5563 23.25 23.25 19.5563 23.25 15C23.25 10.4436 19.5563 6.74999 15 6.74999ZM4.91663 15C4.91663 9.43112 9.43109 4.91666 15 4.91666C20.5688 4.91666 25.0833 9.43112 25.0833 15C25.0833 20.5689 20.5688 25.0833 15 25.0833C9.43109 25.0833 4.91663 20.5689 4.91663 15Z" fill="#F5F5F5"/>
<path fill-rule="evenodd" clip-rule="evenodd" d="M13.1666 15C13.1666 13.9875 13.9874 13.1667 15 13.1667C16.0125 13.1667 16.8333 13.9875 16.8333 15C16.8333 16.0125 16.0125 16.8333 15 16.8333C13.9874 16.8333 13.1666 16.0125 13.1666 15Z" fill="#F5F5F5"/>
</g>
<defs>
<clipPath id="clip0_34_155">
<rect width="22" height="22" fill="white" transform="translate(4 4)"/>
</clipPath>
</defs>
</svg>
