<svg width="16" height="17" viewBox="0 0 16 17" fill="none" xmlns="http://www.w3.org/2000/svg">
<path fill-rule="evenodd" clip-rule="evenodd" d="M7.39595 1.36979C7.56983 1.2379 7.78208 1.1665 8.00031 1.1665C8.21855 1.1665 8.4308 1.2379 8.60467 1.36979C8.77854 1.50168 8.9045 1.68684 8.96331 1.897C8.96455 1.90142 8.96574 1.90586 8.96689 1.9103L10.0208 6.00014C10.0209 6.00019 10.0209 6.00025 10.0209 6.0003C10.0507 6.1156 10.1108 6.22081 10.195 6.30501C10.2792 6.38921 10.3844 6.44932 10.4997 6.47909C10.4997 6.47911 10.4998 6.47912 10.4998 6.47914L14.5897 7.53309C14.5933 7.53403 14.597 7.535 14.6006 7.536C14.8116 7.5942 14.9977 7.72002 15.1303 7.89416C15.2629 8.06829 15.3347 8.28112 15.3347 8.5C15.3347 8.71888 15.2629 8.93171 15.1303 9.10585C14.9977 9.27998 14.8116 9.4058 14.6006 9.464C14.597 9.465 14.5933 9.46597 14.5897 9.46691L10.4998 10.5209C10.4998 10.5209 10.4997 10.5209 10.4997 10.5209C10.3844 10.5507 10.2792 10.6108 10.195 10.695C10.1107 10.7792 10.0506 10.8845 10.0208 10.9999L8.9662 15.0898C8.96538 15.0929 8.96455 15.0961 8.96369 15.0992C8.96335 15.1005 8.963 15.1017 8.96265 15.103C8.90383 15.3132 8.77788 15.4983 8.60401 15.6302C8.43013 15.7621 8.21789 15.8335 7.99965 15.8335C7.78141 15.8335 7.56916 15.7621 7.39529 15.6302C7.22142 15.4983 7.09546 15.3132 7.03665 15.103C7.03541 15.0986 7.03422 15.0941 7.03307 15.0897L5.97911 10.9999C5.9791 10.9998 5.97909 10.9998 5.97907 10.9997C5.9493 10.8844 5.88919 10.7792 5.80499 10.695C5.72075 10.6108 5.61547 10.5506 5.50011 10.5209L1.41018 9.46622C1.40498 9.46488 1.39979 9.46347 1.39461 9.462C1.18528 9.40259 1.00103 9.27651 0.869839 9.10289C0.738645 8.92928 0.667664 8.71761 0.667664 8.5C0.667664 8.2824 0.738645 8.07073 0.869839 7.89711C1.00103 7.7235 1.18528 7.59742 1.39461 7.538C1.39975 7.53654 1.40491 7.53515 1.41008 7.53381L5.50008 6.47848L5.66658 7.12375L5.50021 6.47845C5.61552 6.44872 5.72077 6.38864 5.80501 6.30446C5.88924 6.22028 5.9494 6.11508 5.97921 5.99978L7.03376 1.91021C7.0349 1.90579 7.03609 1.90139 7.03731 1.897C7.09613 1.68684 7.22208 1.50169 7.39595 1.36979ZM5.83309 7.76956L3.00261 8.4999L5.83311 9.22979L5.83318 9.2298C6.17925 9.31908 6.49508 9.49947 6.7478 9.75219C7.00052 10.0049 7.1809 10.3207 7.27018 10.6668L7.99975 13.4979L8.72976 10.6669L8.72978 10.6668C8.81906 10.3207 8.99944 10.0049 9.25216 9.75219C9.50488 9.49947 9.82071 9.31908 10.1668 9.2298L12.9987 8.5L10.1668 7.7702C9.82071 7.68092 9.50488 7.50054 9.25216 7.24782C8.99944 6.9951 8.81906 6.67927 8.72978 6.3332L8.72974 6.33304L8.00021 3.50214L7.27009 6.33356C7.18065 6.67945 7.0002 6.99506 6.74749 7.2476C6.49478 7.50013 6.17904 7.68037 5.83309 7.76956Z" fill="#959595"/>
<path fill-rule="evenodd" clip-rule="evenodd" d="M13.3334 1.83331C13.7015 1.83331 14 2.13179 14 2.49998V5.16665C14 5.53484 13.7015 5.83331 13.3334 5.83331C12.9652 5.83331 12.6667 5.53484 12.6667 5.16665V2.49998C12.6667 2.13179 12.9652 1.83331 13.3334 1.83331Z" fill="#959595"/>
<path fill-rule="evenodd" clip-rule="evenodd" d="M11.3333 3.83335C11.3333 3.46516 11.6318 3.16669 12 3.16669H14.6666C15.0348 3.16669 15.3333 3.46516 15.3333 3.83335C15.3333 4.20154 15.0348 4.50002 14.6666 4.50002H12C11.6318 4.50002 11.3333 4.20154 11.3333 3.83335Z" fill="#959595"/>
<path fill-rule="evenodd" clip-rule="evenodd" d="M2.66667 11.1667C3.03486 11.1667 3.33333 11.4652 3.33333 11.8334V13.1667C3.33333 13.5349 3.03486 13.8334 2.66667 13.8334C2.29848 13.8334 2 13.5349 2 13.1667V11.8334C2 11.4652 2.29848 11.1667 2.66667 11.1667Z" fill="#959595"/>
<path fill-rule="evenodd" clip-rule="evenodd" d="M1.33331 12.5C1.33331 12.1318 1.63179 11.8333 1.99998 11.8333H3.33331C3.7015 11.8333 3.99998 12.1318 3.99998 12.5C3.99998 12.8682 3.7015 13.1666 3.33331 13.1666H1.99998C1.63179 13.1666 1.33331 12.8682 1.33331 12.5Z" fill="#959595"/>
</svg>
