<svg width="16" height="17" viewBox="0 0 16 17" fill="none" xmlns="http://www.w3.org/2000/svg">
<path fill-rule="evenodd" clip-rule="evenodd" d="M8.24934 3.4163L2.66806 9.16672H7.33231C7.54759 9.1662 7.7598 9.21782 7.95079 9.31717C8.14213 9.4167 8.30647 9.56116 8.42971 9.73815C8.55295 9.91515 8.63141 10.1194 8.65837 10.3334C8.68454 10.541 8.66143 10.7519 8.59104 10.9488L7.75065 13.5838L13.3319 7.83338H8.66768C8.4524 7.8339 8.24019 7.78228 8.0492 7.68293C7.85786 7.5834 7.69352 7.43894 7.57028 7.26195C7.44704 7.08495 7.36858 6.8807 7.34162 6.66672C7.31545 6.45905 7.33856 6.24823 7.40895 6.0513L8.24934 3.4163ZM8.81675 1.18165C9.0398 1.14041 9.27024 1.17621 9.47025 1.28319C9.67026 1.39018 9.82796 1.56198 9.91746 1.7704C10.007 1.97883 10.0229 2.21148 9.96279 2.43019C9.96041 2.43883 9.95786 2.44742 9.95514 2.45595L8.67514 6.46929C8.67184 6.47963 8.66829 6.48989 8.66449 6.50005C8.66522 6.50005 8.66594 6.50005 8.66666 6.50005H13.3325C13.5843 6.49946 13.8311 6.57019 14.0444 6.70408C14.2582 6.83822 14.4294 7.03024 14.5383 7.25784C14.6472 7.48544 14.6893 7.73927 14.6597 7.98984C14.6301 8.24041 14.53 8.47744 14.3711 8.67339C14.3586 8.68873 14.3455 8.70352 14.3317 8.7177L7.74132 15.5078C7.5944 15.6694 7.39843 15.7787 7.18324 15.8184C6.9602 15.8597 6.72976 15.8239 6.52974 15.7169C6.32973 15.6099 6.17203 15.4381 6.08253 15.2297C5.99303 15.0213 5.97705 14.7886 6.0372 14.5699C6.03958 14.5613 6.04213 14.5527 6.04485 14.5441L7.32485 10.5308C7.32815 10.5205 7.3317 10.5102 7.3355 10.5C7.33477 10.5 7.33405 10.5 7.33333 10.5H2.66752C2.4157 10.5006 2.16884 10.4299 1.95554 10.296C1.74184 10.1619 1.57058 9.96985 1.46167 9.74226C1.35276 9.51466 1.31066 9.26083 1.34027 9.01026C1.36988 8.75969 1.46998 8.52266 1.62893 8.32671C1.64138 8.31137 1.65451 8.29658 1.66827 8.2824L8.25865 1.49231C8.40557 1.3307 8.60155 1.22145 8.81675 1.18165Z" fill="#959595"/>
</svg>
