<svg width="16" height="17" viewBox="0 0 16 17" fill="none" xmlns="http://www.w3.org/2000/svg">
<path fill-rule="evenodd" clip-rule="evenodd" d="M3.7381 3.29524C3.99845 3.55559 3.99845 3.9777 3.7381 4.23805C1.39845 6.5777 1.39845 10.4223 3.7381 12.7619C3.99845 13.0223 3.99845 13.4444 3.7381 13.7047C3.47775 13.9651 3.05564 13.9651 2.79529 13.7047C-0.0650631 10.8444 -0.0650631 6.15559 2.79529 3.29524C3.05564 3.03489 3.47775 3.03489 3.7381 3.29524Z" fill="currentColor"/>
<path fill-rule="evenodd" clip-rule="evenodd" d="M5.6613 5.15202C5.92713 5.40677 5.93611 5.82878 5.68135 6.09461C4.38975 7.44238 4.40385 9.56102 5.67143 10.8286C5.93178 11.089 5.93178 11.5111 5.67143 11.7714C5.41108 12.0318 4.98897 12.0318 4.72862 11.7714C2.92954 9.97233 2.94365 7.02431 4.7187 5.17207C4.97346 4.90624 5.39547 4.89726 5.6613 5.15202Z" fill="currentColor"/>
<path fill-rule="evenodd" clip-rule="evenodd" d="M8 7.83333C7.63181 7.83333 7.33333 8.13181 7.33333 8.5C7.33333 8.86819 7.63181 9.16667 8 9.16667C8.36819 9.16667 8.66667 8.86819 8.66667 8.5C8.66667 8.13181 8.36819 7.83333 8 7.83333ZM6 8.5C6 7.39543 6.89543 6.5 8 6.5C9.10457 6.5 10 7.39543 10 8.5C10 9.60457 9.10457 10.5 8 10.5C6.89543 10.5 6 9.60457 6 8.5Z" fill="currentColor"/>
<path fill-rule="evenodd" clip-rule="evenodd" d="M10.3286 5.22859C10.5889 4.96824 11.011 4.96824 11.2714 5.22859C13.0705 7.02767 13.0564 9.97569 11.2813 11.8279C11.0265 12.0938 10.6045 12.1027 10.3387 11.848C10.0729 11.5932 10.0639 11.1712 10.3186 10.9054C11.6103 9.55762 11.5962 7.43898 10.3286 6.1714C10.0682 5.91105 10.0682 5.48894 10.3286 5.22859Z" fill="currentColor"/>
<path fill-rule="evenodd" clip-rule="evenodd" d="M12.2619 3.29524C12.5223 3.03489 12.9444 3.03489 13.2047 3.29524C16.0651 6.15559 16.0651 10.7777 13.2047 13.638C12.9444 13.8984 12.5223 13.8984 12.2619 13.638C12.0016 13.3777 12.0016 12.9556 12.2619 12.6952C14.6016 10.3556 14.6016 6.5777 12.2619 4.23805C12.0016 3.9777 12.0016 3.55559 12.2619 3.29524Z" fill="currentColor"/>
</svg>
