<svg width="16" height="17" viewBox="0 0 16 17" fill="none" xmlns="http://www.w3.org/2000/svg">
<path fill-rule="evenodd" clip-rule="evenodd" d="M12 11.1666C11.2636 11.1666 10.6666 11.7636 10.6666 12.5C10.6666 13.2364 11.2636 13.8333 12 13.8333C12.7364 13.8333 13.3333 13.2364 13.3333 12.5C13.3333 11.7636 12.7364 11.1666 12 11.1666ZM9.33331 12.5C9.33331 11.0272 10.5272 9.83331 12 9.83331C13.4727 9.83331 14.6666 11.0272 14.6666 12.5C14.6666 13.9727 13.4727 15.1666 12 15.1666C10.5272 15.1666 9.33331 13.9727 9.33331 12.5Z" fill="white"/>
<path fill-rule="evenodd" clip-rule="evenodd" d="M3.99998 3.16665C3.2636 3.16665 2.66665 3.7636 2.66665 4.49998C2.66665 5.23636 3.2636 5.83331 3.99998 5.83331C4.73636 5.83331 5.33331 5.23636 5.33331 4.49998C5.33331 3.7636 4.73636 3.16665 3.99998 3.16665ZM1.33331 4.49998C1.33331 3.02722 2.52722 1.83331 3.99998 1.83331C5.47274 1.83331 6.66665 3.02722 6.66665 4.49998C6.66665 5.97274 5.47274 7.16665 3.99998 7.16665C2.52722 7.16665 1.33331 5.97274 1.33331 4.49998Z" fill="white"/>
<path fill-rule="evenodd" clip-rule="evenodd" d="M12 3.16669C12.3682 3.16669 12.6666 3.46516 12.6666 3.83335V4.50002C12.6666 4.86821 12.3682 5.16669 12 5.16669C11.6318 5.16669 11.3333 4.86821 11.3333 4.50002V3.83335C11.3333 3.46516 11.6318 3.16669 12 3.16669Z" fill="white"/>
<path fill-rule="evenodd" clip-rule="evenodd" d="M12 6.5C12.3682 6.5 12.6666 6.79848 12.6666 7.16667V7.83333C12.6666 8.20152 12.3682 8.5 12 8.5C11.6318 8.5 11.3333 8.20152 11.3333 7.83333V7.16667C11.3333 6.79848 11.6318 6.5 12 6.5Z" fill="white"/>
<path fill-rule="evenodd" clip-rule="evenodd" d="M3.99998 5.83331C4.36817 5.83331 4.66665 6.13179 4.66665 6.49998V14.5C4.66665 14.8682 4.36817 15.1666 3.99998 15.1666C3.63179 15.1666 3.33331 14.8682 3.33331 14.5V6.49998C3.33331 6.13179 3.63179 5.83331 3.99998 5.83331Z" fill="white"/>
</svg>
